# AST/ASF file generated using VICON BodyLanguage
# -----------------------------------------------
:version 1.10
:name VICON
:units
  mass 1.0
  length 0.45
  angle deg
:documentation
   .ast/.asf automatically generated from VICON data using
   VICON BodyBuilder and BodyLanguage model FoxedUp or BRILLIANT.MOD
:root
   order TX TY TZ RX RY RZ
   axis XYZ
   position 0 0 0  
   orientation 0 0 0 
:bonedata
  begin
     id 1 
     name lhipjoint
     direction 0.567725 -0.736092 0.368589 
     length 2.42353 
     axis 0 0 0  XYZ
  end
  begin
     id 2 
     name lfemur
     direction 0.34202 -0.939693 0  
     length 7.24894  
     axis 0 0 20  XYZ
    dof rx ry rz
    limits (-160.0 20.0)
           (-70.0 70.0)
           (-60.0 70.0)
  end
  begin
     id 3 
     name ltibia
     direction 0.34202 -0.939693 0   
     length 7.6997   
     axis 0 0 20   XYZ
    dof rx
    limits (-10.0 170.0)
  end
  begin
     id 4 
     name lfoot
     direction 0.100767 -0.276854 0.955614   
     length 2.37556   
     axis -90 7.62852e-016 20   XYZ
    dof rx rz
    limits (-45.0 90.0)
           (-70.0 20.0)
  end
  begin
     id 5 
     name ltoes
     direction 1.53592e-011 -4.21894e-011 1   
     length 1.18363   
     axis -90 7.62852e-016 20   XYZ
    dof rx
    limits (-90.0 20.0)
  end
  begin
     id 6 
     name rhipjoint
     direction -0.556459 -0.742938 0.372017   
     length 2.4012  
     axis 0 0 0  XYZ 
  end
  begin
     id 7 
     name rfemur
     direction -0.34202 -0.939693 0   
     length 7.5119   
     axis 0 0 -20   XYZ
    dof rx ry rz
    limits (-160.0 20.0)
           (-70.0 70.0)
           (-70.0 60.0)
  end
  begin
     id 8 
     name rtibia
     direction -0.34202 -0.939693 0   
     length 7.50155   
     axis 0 0 -20   XYZ
    dof rx
    limits (-10.0 170.0)
 end
 begin
     id 9 
     name rfoot
     direction -0.118427 -0.325376 0.938139   
     length 2.32487  
     axis -90 -7.62852e-016 -20   XYZ
    dof rx rz
    limits (-45.0 90.0)
           (-20.0 70.0)
  end
  begin
     id 10 
     name rtoes
     direction -1.53525e-011 -4.21868e-011 1   
     length 1.15233   
     axis -90 -7.62852e-016 -20   XYZ
    dof rx
    limits (-90.0 20.0)
  end
  begin
     id 11 
     name lowerback
     direction 0.0287568 0.999577 -0.00434502   
     length 2.15243   
     axis 0 0 0   XYZ
    dof rx ry rz
    limits (-20.0 45.0)
           (-30.0 30.0)
           (-30.0 30.0)
  end
  begin
     id 12 
     name upperback
     direction 0.0294009 0.99956 0.00404628   
     length 2.15427   
     axis 0 0 0   XYZ
    dof rx ry rz
    limits (-20.0 45.0)
           (-30.0 30.0)
           (-30.0 30.0)
  end
  begin
     id 13 
     name thorax
     direction 0.0151014 0.999868 0.0059419   
     length 2.14898   
     axis 0 0 0   XYZ
    dof rx ry rz
    limits (-20.0 45.0)
           (-30.0 30.0)
           (-30.0 30.0)
  end
  begin
     id 14 
     name lowerneck
     direction -0.0249197 0.989906 0.139515   
     length 1.6861   
     axis 0 0 0   XYZ
    dof rx ry rz
    limits (-20.0 45.0)
           (-30.0 30.0)
           (-30.0 30.0)
  end
  begin
     id 15 
     name upperneck
     direction 0.0438463 0.988795 -0.142693   
     length 1.71276   
     axis 0 0 0   XYZ
    dof rx ry rz
    limits (-20.0 45.0)
           (-30.0 30.0)
           (-30.0 30.0)
  end
  begin
     id 16
     name head
     direction 0.0148499 0.997845 -0.0639186  
     length 1.7209  
     axis 0 0 0   XYZ
    dof rx ry rz
    limits (-20.0 45.0)
           (-30.0 30.0)
           (-30.0 30.0)
  end
  begin
     id 17 
     name lclavicle
     direction 0.940298 0.323464 -0.105876  
     length 3.9048  
     axis 0 0 0   XYZ
    dof ry rz
    limits (-20.0 10.0)
           (0.0 20.0)
  end
  begin
     id 18 
     name lhumerus
     direction 1 -4.48954e-011 -4.9675e-028   
     length 4.6851   
     axis 180 -30 -90   XYZ
    dof rx ry rz
    limits (-60.0 90.0)
           (-90.0 90.0)
           (-90.0 90.0)
  end
  begin
     id 19
     name lradius
     direction 1 -4.48992e-011 -1.03359e-026   
     length 3.39626   
     axis 180 -30 -90   XYZ
    dof rx
    limits (-10.0 170.0)
  end
  begin
     id 20
     name lwrist
     direction 1 -4.48906e-011 -1.67336e-026   
     length 1.69813   
     axis 9.90442e-015 90 90   XYZ
    dof ry
    limits (-180.0 0.0)
 end
  begin
     id 21 
     name lhand
     direction 1 -4.49006e-011 -3.34673e-026   
     length 0.486078   
     axis 2.1355e-014 90 90   XYZ
    dof rx rz
    limits (-90.0 90.0)
           (-45.0 45.0)
  end
  begin
     id 22 
     name lfingers
     direction 1 -4.48992e-011 -6.69345e-026   
     length 0.391889   
     axis 4.27099e-014 90 90   XYZ
    dof rx
    limits (0.0 90.0)
  end
  begin
     id 23
     name lthumb
     direction 0.707107 -6.34926e-011 0.707107   
     length 0.562676   
     axis -90 45 2.85299e-015   XYZ
    dof rx rz
    limits (-45.0 45.0)
           (-45.0 45.0)
  end
  begin
     id 24 
     name rclavicle
     direction -0.882459 0.414895 -0.221648   
     length 3.44646  
     axis 0 0 0   XYZ 
    dof ry rz
    limits (-10.0 20.0)
           (-20.0 0.0)
  end
  begin
     id 25 
     name rhumerus
     direction -1 -4.48962e-011 -2.37984e-027  
     length 5.55576   
     axis 180 30 90   XYZ
    dof rx ry rz
    limits (-90.0 60.0)
           (-90.0 90.0)
           (-90.0 90.0)
  end
  begin
     id 26 
     name rradius
     direction -1 -4.48982e-011 -6.86791e-027   
     length 3.32774   
     axis 180 30 90   XYZ
    dof rx
    limits (-10.0 170.0)
  end
  begin
     id 27 
     name rwrist
     direction -1 -4.48961e-011 -1.67336e-026   
     length 1.66387   
     axis 9.90442e-015 -90 -90   XYZ
    dof ry
    limits (-180.0 0.0)
  end
  begin
     id 28
     name rhand
     direction -1 -4.4897e-011 -3.34673e-026   
     length 0.507628   
     axis 2.1355e-014 -90 -90   XYZ
    dof rx rz
    limits (-90.0 90.0)
           (-45.0 45.0)
  end
  begin
     id 29
     name rfingers
     direction -1 -4.48854e-011 -6.69345e-026   
     length 0.409263   
     axis 4.27099e-014 -90 -90   XYZ
    dof rx
    limits (0.0 90.0)
  end
  begin
     id 30
     name rthumb
     direction -0.707107 -6.34913e-011 0.707107   
     length 0.587622   
     axis -90 -45 -2.85299e-015   XYZ
    dof rx rz
    limits (-45.0 45.0)
           (-45.0 45.0)
  end
:hierarchy
  begin
    root lhipjoint rhipjoint lowerback
    lhipjoint lfemur
    lfemur ltibia
    ltibia lfoot
    lfoot ltoes
    rhipjoint rfemur
    rfemur rtibia
    rtibia rfoot
    rfoot rtoes
    lowerback upperback
    upperback thorax
    thorax lowerneck lclavicle rclavicle
    lowerneck upperneck
    upperneck head
    lclavicle lhumerus
    lhumerus lradius
    lradius lwrist
    lwrist lhand lthumb
    lhand lfingers
    rclavicle rhumerus
    rhumerus rradius
    rradius rwrist
    rwrist rhand rthumb
    rhand rfingers
  end

#!OML:ASF E:\motion texture\Top Level 1\Subject 1\Session 1\male.ASF
:FULLY-SPECIFIED
:DEGREES
49
root 41.2875 17.8743 6.82902 108.833 -84.1983 -99.5928
lowerback -6.40974 -0.943749 3.90683
upperback -2.82099 -1.64961 3.32452
thorax 0.673801 -0.888266 1.11766
lowerneck -16.4276 -8.40377 -11.839
upperneck 13.6876 -10.0333 7.92313
head 7.92997 -4.71118 3.30211
rclavicle -1.17718e-014 4.53229e-014
rhumerus -29.9658 -4.40668 -77.4929
rradius 26.1026
rwrist 6.58855
rhand -12.3043 -22.2604
rfingers 7.12502
rthumb 13.7637 -51.7851
lclavicle -1.17718e-014 4.53229e-014
lhumerus -36.4595 14.9798 77.3443
lradius 28.4349
lwrist -22.732
lhand -11.259 16.9748
lfingers 7.12502
lthumb 14.771 46.4284
rfemur -9.07372 4.22747 26.3575
rtibia 12.8799
rfoot -8.11582 -12.4362
rtoes 13.9009
lfemur -7.3563 -4.20759 -12.2571
ltibia 9.51634
lfoot -8.98845 4.47662
ltoes 8.3104
50
root 41.2857 17.8741 6.82795 108.797 -84.2019 -99.541
lowerback -6.39757 -1.0337 3.87921
upperback -2.94759 -1.76624 3.37921
thorax 0.538046 -0.950752 1.18394
lowerneck -15.8733 -8.49389 -12.1939
upperneck 13.5538 -10.1592 8.05083
head 7.83019 -4.7929 3.39919
rclavicle -1.59028e-015 2.38542e-014
rhumerus -30.1223 -4.06427 -77.562
rradius 26.116
rwrist 6.56632
rhand -12.2902 -22.1448
rfingers 7.12502
rthumb 13.7774 -51.6686
lclavicle -1.59028e-015 2.38542e-014
lhumerus -36.8083 15.1207 77.2545
lradius 28.5595
lwrist -22.6485
lhand -11.2264 16.9794
lfingers 7.12502
lthumb 14.8024 46.4308
rfemur -9.08999 4.22921 26.3591
rtibia 12.8904
rfoot -8.12833 -12.4447
rtoes 13.8923
lfemur -7.3635 -4.20819 -12.2522
ltibia 9.51043
lfoot -8.99611 4.4733
ltoes 8.33839
51
root 41.2839 17.874 6.8268 108.752 -84.2065 -99.4777
lowerback -6.37493 -1.10152 3.82445
upperback -3.0003 -1.85296 3.4433
thorax 0.474404 -0.995659 1.27631
lowerneck -15.6627 -8.62593 -12.4871
upperneck 13.5074 -10.3122 8.13485
head 7.8159 -4.8785 3.45745
rclavicle 5.04105e-015 2.18663e-014
rhumerus -30.1223 -3.82019 -77.5927
rradius 26.1117
rwrist 6.54738
rhand -12.286 -22.0632
rfingers 7.12502
rthumb 13.7814 -51.5867
lclavicle 5.04105e-015 2.18663e-014
lhumerus -36.9535 15.2628 77.2549
lradius 28.6466
lwrist -22.5964
lhand -11.2005 16.9747
lfingers 7.12502
lthumb 14.8273 46.4242
rfemur -9.11009 4.22775 26.3594
rtibia 12.904
rfoot -8.14263 -12.4517
rtoes 13.8777
lfemur -7.37171 -4.20366 -12.248
ltibia 9.50079
lfoot -8.9987 4.46738
ltoes 8.33209
52
root 41.282 17.8738 6.82558 108.709 -84.2104 -99.4177
lowerback -6.34585 -1.11955 3.77731
upperback -3.02128 -1.87247 3.46619
thorax 0.438841 -1.00578 1.32602
lowerneck -15.5737 -8.79448 -12.661
upperneck 13.48 -10.5246 8.19467
head 7.82765 -4.98496 3.4767
rclavicle -1.34086e-014 3.45885e-014
rhumerus -30.0939 -3.78324 -77.6024
rradius 26.1013
rwrist 6.5538
rhand -12.2906 -22.0105
rfingers 7.12502
rthumb 13.7769 -51.5343
lclavicle -1.34086e-014 3.45885e-014
lhumerus -36.9646 15.252 77.3028
lradius 28.703
lwrist -22.5495
lhand -11.1809 16.9641
lfingers 7.12502
lthumb 14.8462 46.4122
rfemur -9.1322 4.22333 26.3605
rtibia 12.9208
rfoot -8.15707 -12.4546
rtoes 13.8553
lfemur -7.37843 -4.18744 -12.2439
ltibia 9.4908
lfoot -8.99799 4.45761
ltoes 8.25992
53
root 41.2801 17.8737 6.82427 108.688 -84.2153 -99.3792
lowerback -6.29748 -1.13482 3.73769
upperback -3.05186 -1.88693 3.48007
thorax 0.382168 -1.01374 1.36325
lowerneck -15.4889 -8.94553 -12.809
upperneck 13.4557 -10.719 8.25461
head 7.83818 -5.08156 3.49426
rclavicle 1.83845e-014 -1.19271e-014
rhumerus -30.0841 -3.76503 -77.6155
rradius 26.0885
rwrist 6.56342
rhand -12.3029 -22.0135
rfingers 7.12502
rthumb 13.7651 -51.5381
lclavicle 1.83845e-014 -1.19271e-014
lhumerus -36.9873 15.2172 77.3436
lradius 28.7556
lwrist -22.5073
lhand -11.1749 16.9616
lfingers 7.12502
lthumb 14.852 46.4093
rfemur -9.1573 4.2152 26.3599
rtibia 12.944
rfoot -8.1733 -12.4513
rtoes 13.8345
lfemur -7.38157 -4.17246 -12.2417
ltibia 9.47813
lfoot -8.99762 4.44813
ltoes 8.19595
